<svg xmlns="http://www.w3.org/2000/svg" width="108.395" height="34" viewBox="0 0 108.395 34">
  <g id="cocacola" transform="translate(0.015 0.005)">
    <g id="Layer_1" data-name="Layer 1" transform="translate(-0.015 -0.005)">
      <path id="Path_22" data-name="Path 22" d="M75.919,2.606a13.465,13.465,0,0,0-4.4,3.413c-2.363,2.6-3.74,5.533-2.721,6.312.391.3,1.293.352,2.931-1.128A12.935,12.935,0,0,0,75.2,6.4c1.057-2.578.721-3.762.721-3.791M88.852,7.291c-2.626-1.346-4.545-3-6.541-4.016-1.9-.978-3.137-1.387-4.677-1.181A4.772,4.772,0,0,0,77,2.253s.793,2.709-2.363,7.259c-3.2,4.614-6.1,4.582-6.922,3.315-.863-1.338.252-4.064,2.115-6.49a23.332,23.332,0,0,1,5.377-4.642s-1.093-.668-3.775.853a37.739,37.739,0,0,0-11.3,10.945c-4.18,5.944-5.008,9.215-5.607,11.789s-.055,5.333,2.8,5.333,6.178-4.355,7.116-5.868c1.743-2.82,2.88-7.144.508-6.55-1.168.293-2.115,1.586-2.712,2.832a12.116,12.116,0,0,0-.86,2.5,9.869,9.869,0,0,0-2.314,1.346,17.11,17.11,0,0,0-2.2,1.938,13.791,13.791,0,0,1,1.651-5.389,8.79,8.79,0,0,1,6.358-4.994c1.537-.123,3.537,1.181,1.842,5.992s-6.7,10.66-11.95,10.732c-4.848.067-8.02-6.12-1.272-16.918C60.961,4.31,69.721.65,72.566.242s3.769.848,3.769.848A12.235,12.235,0,0,1,81.743.2c3.473.234,6.159,2.693,9.7,4.42-.922.881-1.8,1.806-2.594,2.673m15.6-4.016c-2.407,1.544-5.738,2.943-8.938,2.643-.811.837-1.678,1.806-2.546,2.864,5.549,1.1,10.411-2.34,13-5.267A17.254,17.254,0,0,0,108.38.049a21.643,21.643,0,0,1-3.925,3.227M97.066,18.91a1.209,1.209,0,0,0,.1-.231.56.56,0,0,0-.509-.486c-.529-.025-1.249.076-3.14,2.169a28.467,28.467,0,0,0-4.02,5.7c-1.082,1.977-1.521,3.45-.9,3.831a.9.9,0,0,0,.656.067c.421-.1.9-.5,1.625-1.336.34-.395.717-.953,1.168-1.572,1.251-1.7,4.4-7.061,5.017-8.145M77.424,21.187c.315-.825.717-2.444-.118-3.08-.9-.675-3.184.909-3.2,2.534a2.814,2.814,0,0,0,2,2.522c.222.06.3.051.407-.127a14.834,14.834,0,0,0,.908-1.849m-1.731,3.026a6.915,6.915,0,0,1-1.572-1,5.04,5.04,0,0,1-1.177-1.433c-.032-.053-.063-.012-.1.035s-.176.176-1.4,1.963-3.093,5.489-1.4,6.12c1.086.4,2.892-1.5,3.877-2.758a23.532,23.532,0,0,0,1.82-2.77c.051-.108,0-.132-.055-.155m19.23,4.277c-.46.737-.985,2.15.529,1.271,1.852-1.07,4.49-5.072,4.49-5.072h1.2a40.109,40.109,0,0,1-3.627,4.758c-1.877,2.079-4.166,3.969-5.778,3.782-1.884-.22-1.294-2.693-1.294-2.693S87.747,33.4,85.883,33.2c-2.518-.278-1.75-3.391-1.75-3.391s-2.848,3.495-4.788,3.387c-3.042-.176-2.277-3.877-1.431-6.483.453-1.394.872-2.488.872-2.488s-.3.079-.95.176c-.338.048-.955.083-.955.083A41.273,41.273,0,0,1,74.6,28.06c-1.013,1.343-5.32,5.972-7.854,5.045-2.344-.856-1.568-4.444-.2-7.3,1.991-4.157,7.592-10.129,10.822-9.34,3.348.812.076,6.922.076,6.922s0,.023.035.039a1.393,1.393,0,0,0,.645-.035,7.249,7.249,0,0,0,1.225-.365,71.144,71.144,0,0,1,7.084-11.661C90.148,6.757,97.565-1.185,100.476.736c.7.472.388,2.1-.571,4.073a13.058,13.058,0,0,1-1.315.352,10.714,10.714,0,0,0,1.193-2.832c.439-2.383-5.125,2.643-9.1,8.043a74.945,74.945,0,0,0-6.362,10.3A17.433,17.433,0,0,0,86.373,19.2a58.724,58.724,0,0,0,5.047-4.712,54.96,54.96,0,0,0,4.3-4.959A11.655,11.655,0,0,0,96.98,9.4a54.439,54.439,0,0,1-4.74,5.6c-1.586,1.6-3.3,3.329-4.793,4.582a39.921,39.921,0,0,1-4.2,3.124s-3.477,7.012-1.586,7.461c1.112.268,3.308-3.114,3.308-3.114s2.865-4.372,4.592-6.344c2.356-2.679,4.384-4.229,6.411-4.258a2.409,2.409,0,0,1,1.877,1.234l.555-.86h3.419s-6.385,10.834-6.9,11.65m9.534-25.2c-2.407,1.544-5.738,2.943-8.938,2.643-.811.837-1.678,1.806-2.546,2.864,5.549,1.1,10.411-2.34,13-5.267A17.254,17.254,0,0,0,108.38.049a21.644,21.644,0,0,1-3.925,3.227M56.443,8.59H53.191L51.353,11.56H54.6Zm-15.4,10.283c1.383-1.9,5.2-8.542,5.2-8.542a.559.559,0,0,0-.508-.486c-.529-.025-1.41.153-3.16,2.344a41.4,41.4,0,0,0-4.1,5.747c-1.086,1.979-1.56,3.375-.936,3.754a.927.927,0,0,0,.654.067,3.964,3.964,0,0,0,1.664-1.346c.342-.391.73-.918,1.184-1.537M23.6,9.885c-.9-.678-3.184.909-3.2,2.531-.014,1.665,2.057,2.175,2.324,2.187a.407.407,0,0,0,.227-.048.271.271,0,0,0,.109-.12,15.732,15.732,0,0,0,.656-1.47c.315-.825.715-2.444-.12-3.08m-1.355,5.733a7.578,7.578,0,0,1-1.762-.811,3.669,3.669,0,0,1-1.258-1.394c-.032-.053-.067-.012-.1.035s-.215.277-1.438,2.071-3.035,5.463-1.338,6.094c1.082.411,2.909-1.507,3.9-2.761a32.7,32.7,0,0,0,2.055-3.077c.041-.107,0-.132-.06-.152m26.554,1.1h1.191s-5.969,8.635-9.34,8.233c-1.882-.22-1.323-2.543-1.323-2.543s-2.643,3.095-5.072,2.467c-2.2-.566-.781-4.229-.781-4.229-.25.1-5.017,5.474-8.367,4.185-3.505-1.353-1.685-5.852-1.019-7.206.566-1.14,1.191-2.25,1.191-2.25s-.537.152-.881.229-.841.176-.841.176S21.9,18.48,20.889,19.825s-5.32,5.965-7.858,5.045-1.909-4.471-.483-7.29c2.312-4.573,7.8-10.193,11.1-9.34,3.338.851.574,6.265.574,6.265s.664.086,2.256-1c2.291-1.563,5.315-5.768,8.589-5.274,1.544.233,2.982,1.81,1.015,4.806-.627.962-1.679,1.822-2.485.971-.5-.529-.063-1.493.463-2.152a2.062,2.062,0,0,1,1.762-.807s.541-1.234-.835-1.216c-1.114.021-3.933,2.617-5.525,5.239-1.459,2.407-3.671,6.508-1.45,7.4,2.035.821,5.909-3.776,7.7-6.185S41.6,8.419,45.03,8.2a2.28,2.28,0,0,1,1.884,1l.4-.627H50.74s-6.459,10.778-6.963,11.594c-.4.638-.923,2.072.529,1.269s4.5-4.712,4.5-4.712m-1.866,17.27a14.2,14.2,0,0,0-8.617-2.515,5.287,5.287,0,0,0-4.2,2.279c-1.308-2.282-3.893-3.683-7.89-3.651-6.459.074-12.864,3.052-17.94,3.049-4.864,0-8.411-3.058-8.3-8.487C.2,15.139,8.252,6.558,14.262,2.7,17.726.479,20.623-.18,22.518.033a2.766,2.766,0,0,1,1.995,4.1c-1.54,3.438-3.667,3.156-3.588,1.512a2.735,2.735,0,0,1,1.292-2.115,2.63,2.63,0,0,1,1.255-.308c.3-.257.529-2.139-1.938-1.521S16.07,4.754,13.225,7.9,5.953,16.977,4.858,23.213c-.511,2.892-.176,8.166,6.681,8.106,5.815-.048,14.387-3.877,22.264-3.8A15.083,15.083,0,0,1,41.6,29.656a21.443,21.443,0,0,1,5.347,4.339" transform="translate(0.015 0.005)" fill="#fff"/>
    </g>
  </g>
</svg>
