<svg id="Facebook-f_Logo-Blue-Logo.wine" xmlns="http://www.w3.org/2000/svg" width="40" height="40" viewBox="0 0 40 40">
  <path id="Path_9" data-name="Path 9" d="M40,19.991A20,20,0,1,0,16.875,39.739V25.769H11.8V19.991h5.078v-4.4c0-5.01,2.986-7.778,7.554-7.778a30.77,30.77,0,0,1,4.477.39v4.92H26.384c-2.484,0-3.259,1.541-3.259,3.122v3.75h5.547l-.887,5.779h-4.66V39.739A20,20,0,0,0,40,19.991" transform="translate(0 0)" fill="#1877f2"/>
  <path id="Path_10" data-name="Path 10" d="M419.857,285.933l.953-6.2h-5.964v-4.023c0-1.7.833-3.349,3.5-3.349h2.712v-5.277a33.156,33.156,0,0,0-4.813-.419c-4.912,0-8.122,2.969-8.122,8.343v4.724h-5.46v6.2h5.46v14.985a21.8,21.8,0,0,0,6.72,0V285.933h5.01" transform="translate(-391.533 -261.178)" fill="#fff"/>
</svg>
