<svg id="Group_10" data-name="Group 10" xmlns="http://www.w3.org/2000/svg" width="40" height="39.999" viewBox="0 0 40 39.999">
  <rect id="Rectangle_20" data-name="Rectangle 20" width="34.745" height="33.396" transform="translate(2.698 4.047)" fill="#fff"/>
  <g id="LinkedIn-Icon-Logo.wine">
    <path id="Path_11" data-name="Path 11" d="M34.082,34.082H28.155V24.8c0-2.213-.04-5.062-3.083-5.062-3.087,0-3.559,2.411-3.559,4.9v9.442H15.587V14.994h5.69V17.6h.08A6.235,6.235,0,0,1,26.97,14.52c6.007,0,7.115,3.951,7.115,9.091ZM8.9,12.385a3.439,3.439,0,1,1,3.439-3.439A3.439,3.439,0,0,1,8.9,12.385m2.963,21.7H5.93V14.994h5.933ZM37.037,0H2.952A2.919,2.919,0,0,0,0,2.886V37.112A2.921,2.921,0,0,0,2.952,40H37.037A2.927,2.927,0,0,0,40,37.112V2.883A2.925,2.925,0,0,0,37.037,0" transform="translate(0 0)" fill="#0a66c2"/>
  </g>
</svg>
