<svg id="Instagram-Logo.wine" xmlns="http://www.w3.org/2000/svg" xmlns:xlink="http://www.w3.org/1999/xlink" width="40" height="40" viewBox="0 0 40 40">
  <defs>
    <radialGradient id="radial-gradient" cx="0.266" cy="1.077" r="0.991" gradientUnits="objectBoundingBox">
      <stop offset="0" stop-color="#fd5"/>
      <stop offset="0.1" stop-color="#fd5"/>
      <stop offset="0.5" stop-color="#ff543e"/>
      <stop offset="1" stop-color="#c837ab"/>
    </radialGradient>
    <radialGradient id="radial-gradient-2" cx="-0.168" cy="0.072" r="0.443" gradientUnits="objectBoundingBox">
      <stop offset="0" stop-color="#3771c8"/>
      <stop offset="0.128" stop-color="#3771c8"/>
      <stop offset="1" stop-color="#60f" stop-opacity="0"/>
    </radialGradient>
  </defs>
  <path id="Path_13" data-name="Path 13" d="M20.006,0C11.656,0,9.214.009,8.74.048A9.92,9.92,0,0,0,4.8,1.039,7.984,7.984,0,0,0,2.5,2.721,8.586,8.586,0,0,0,.184,7.587C.048,8.523.009,8.713,0,13.492c0,1.593,0,3.689,0,6.5C0,28.337.01,30.778.05,31.252A10.05,10.05,0,0,0,1,35.117a8.426,8.426,0,0,0,5.461,4.462,14.185,14.185,0,0,0,2.9.385c.5.022,5.544.037,10.595.037s10.1-.006,10.586-.031a13.66,13.66,0,0,0,3.009-.394A8.374,8.374,0,0,0,39.018,35.1a9.886,9.886,0,0,0,.943-3.79c.027-.345.038-5.84.038-11.327S39.987,9.014,39.96,8.669A9.775,9.775,0,0,0,39,4.841a7.929,7.929,0,0,0-1.712-2.346A8.632,8.632,0,0,0,32.417.183C31.482.048,31.3.008,26.516,0Z" transform="translate(0)" fill="url(#radial-gradient)"/>
  <path id="Path_14" data-name="Path 14" d="M20.006,0C11.656,0,9.214.009,8.74.048A9.92,9.92,0,0,0,4.8,1.039,7.984,7.984,0,0,0,2.5,2.721,8.586,8.586,0,0,0,.184,7.587C.048,8.523.009,8.713,0,13.492c0,1.593,0,3.689,0,6.5C0,28.337.01,30.778.05,31.252A10.05,10.05,0,0,0,1,35.117a8.426,8.426,0,0,0,5.461,4.462,14.185,14.185,0,0,0,2.9.385c.5.022,5.544.037,10.595.037s10.1-.006,10.586-.031a13.66,13.66,0,0,0,3.009-.394A8.374,8.374,0,0,0,39.018,35.1a9.886,9.886,0,0,0,.943-3.79c.027-.345.038-5.84.038-11.327S39.987,9.014,39.96,8.669A9.775,9.775,0,0,0,39,4.841a7.929,7.929,0,0,0-1.712-2.346A8.632,8.632,0,0,0,32.417.183C31.482.048,31.3.008,26.516,0Z" transform="translate(0)" fill="url(#radial-gradient-2)"/>
  <path id="Path_15" data-name="Path 15" d="M31.282,17c-3.878,0-4.365.017-5.888.086a10.476,10.476,0,0,0-3.466.664,7.307,7.307,0,0,0-4.178,4.178,10.44,10.44,0,0,0-.663,3.468C17.018,26.92,17,27.407,17,31.287s.017,4.366.086,5.889a10.5,10.5,0,0,0,.663,3.468,7.31,7.31,0,0,0,4.176,4.18,10.485,10.485,0,0,0,3.467.664c1.523.069,2.01.086,5.888.086s4.364-.017,5.887-.086a10.491,10.491,0,0,0,3.468-.664,7.319,7.319,0,0,0,4.176-4.18,10.594,10.594,0,0,0,.663-3.468c.068-1.524.086-2.01.086-5.89s-.018-4.367-.086-5.891a10.589,10.589,0,0,0-.663-3.468,7.308,7.308,0,0,0-4.177-4.178,10.509,10.509,0,0,0-3.469-.664C35.642,17.017,35.157,17,31.278,17ZM30,19.575h1.281c3.813,0,4.265.014,5.771.082a7.9,7.9,0,0,1,2.651.492,4.733,4.733,0,0,1,2.71,2.712,7.9,7.9,0,0,1,.492,2.652c.068,1.506.083,1.958.083,5.771s-.015,4.265-.083,5.771a7.9,7.9,0,0,1-.492,2.652,4.737,4.737,0,0,1-2.71,2.71,7.875,7.875,0,0,1-2.651.492c-1.505.068-1.958.083-5.771.083s-4.265-.015-5.771-.083a7.919,7.919,0,0,1-2.652-.493,4.732,4.732,0,0,1-2.711-2.711,7.9,7.9,0,0,1-.492-2.652c-.068-1.506-.082-1.958-.082-5.774s.014-4.265.082-5.771a7.913,7.913,0,0,1,.492-2.653,4.734,4.734,0,0,1,2.711-2.712,7.886,7.886,0,0,1,2.652-.493c1.317-.06,1.828-.077,4.49-.08Zm8.9,2.372a1.714,1.714,0,1,0,1.714,1.714A1.714,1.714,0,0,0,38.9,21.947Zm-7.623,2a7.336,7.336,0,1,0,7.333,7.337,7.336,7.336,0,0,0-7.333-7.337Zm0,2.575a4.762,4.762,0,1,1-4.76,4.762A4.761,4.761,0,0,1,31.282,26.525Z" transform="translate(-11.285 -11.285)" fill="#fff"/>
</svg>
